0
SECTION
2
HEADER
9
$INSUNITS
70
4
0
ENDSEC
0
SECTION
2
ENTITIES
0
LINE
8
Edge.Cuts
10
0.0000
20
17.9000
30
0.0
11
158.0000
21
17.9000
31
0.0
0
LINE
8
Edge.Cuts
10
158.0000
20
17.9000
30
0.0
11
158.0000
21
0.0000
31
0.0
0
LINE
8
Edge.Cuts
10
158.0000
20
0.0000
30
0.0
11
142.0000
21
0.0000
31
0.0
0
LINE
8
Edge.Cuts
10
142.0000
20
0.0000
30
0.0
11
142.0000
21
6.8000
31
0.0
0
LINE
8
Edge.Cuts
10
142.0000
20
6.8000
30
0.0
11
131.0000
21
6.8000
31
0.0
0
LINE
8
Edge.Cuts
10
131.0000
20
6.8000
30
0.0
11
131.0000
21
0.0000
31
0.0
0
LINE
8
Edge.Cuts
10
131.0000
20
0.0000
30
0.0
11
89.0000
21
0.0000
31
0.0
0
LINE
8
Edge.Cuts
10
89.0000
20
0.0000
30
0.0
11
89.0000
21
6.8000
31
0.0
0
LINE
8
Edge.Cuts
10
89.0000
20
6.8000
30
0.0
11
78.0000
21
6.8000
31
0.0
0
LINE
8
Edge.Cuts
10
78.0000
20
6.8000
30
0.0
11
78.0000
21
0.0000
31
0.0
0
LINE
8
Edge.Cuts
10
78.0000
20
0.0000
30
0.0
11
9.7000
21
0.0000
31
0.0
0
LINE
8
Edge.Cuts
10
9.7000
20
0.0000
30
0.0
11
9.7000
21
6.8000
31
0.0
0
LINE
8
Edge.Cuts
10
9.7000
20
6.8000
30
0.0
11
0.0000
21
6.8000
31
0.0
0
LINE
8
Edge.Cuts
10
0.0000
20
6.8000
30
0.0
11
0.0000
21
17.9000
31
0.0
0
CIRCLE
8
Holes
10
34.5000
20
2.5000
30
0.0
40
1.3500
0
CIRCLE
8
Holes
10
122.5000
20
2.5000
30
0.0
40
1.3500
0
CIRCLE
8
Centres
10
43.1000
20
11.4100
30
0.0
40
0.3000
0
CIRCLE
8
Centres
10
56.1000
20
11.4100
30
0.0
40
0.3000
0
CIRCLE
8
Centres
10
69.1000
20
11.4100
30
0.0
40
0.3000
0
CIRCLE
8
Centres
10
82.1000
20
11.4100
30
0.0
40
0.3000
0
CIRCLE
8
Centres
10
95.1000
20
11.4100
30
0.0
40
0.3000
0
CIRCLE
8
Centres
10
108.1000
20
11.4100
30
0.0
40
0.3000
0
CIRCLE
8
Centres
10
150.0000
20
12.8600
30
0.0
40
0.3000
0
CIRCLE
8
Centres
10
135.8200
20
11.9400
30
0.0
40
0.3000
0
CIRCLE
8
Centres
10
26.5000
20
11.4100
30
0.0
40
0.3000
0
CIRCLE
8
Centres
10
14.5000
20
11.5000
30
0.0
40
0.3000
0
CIRCLE
8
Centres
10
59.5000
20
3.1000
30
0.0
40
0.3000
0
CIRCLE
8
Centres
10
25.5000
20
3.1000
30
0.0
40
0.3000
0
ENDSEC
0
EOF
