0
SECTION
2
HEADER
9
$INSUNITS
70
4
0
ENDSEC
0
SECTION
2
ENTITIES
0
LINE
8
Edge.Cuts
10
0.0000
20
0.0000
30
0.0
11
175.5300
21
0.0000
31
0.0
0
LINE
8
Edge.Cuts
10
175.5300
20
0.0000
30
0.0
11
175.5300
21
71.0000
31
0.0
0
LINE
8
Edge.Cuts
10
175.5300
20
71.0000
30
0.0
11
162.0300
21
71.0000
31
0.0
0
LINE
8
Edge.Cuts
10
162.0300
20
71.0000
30
0.0
11
162.0300
21
67.0000
31
0.0
0
LINE
8
Edge.Cuts
10
162.0300
20
67.0000
30
0.0
11
106.5150
21
67.0000
31
0.0
0
LINE
8
Edge.Cuts
10
106.5150
20
67.0000
30
0.0
11
106.5150
21
85.0200
31
0.0
0
LINE
8
Edge.Cuts
10
106.5150
20
85.0200
30
0.0
11
13.5000
21
85.0200
31
0.0
0
LINE
8
Edge.Cuts
10
13.5000
20
85.0200
30
0.0
11
13.5000
21
71.0000
31
0.0
0
LINE
8
Edge.Cuts
10
13.5000
20
71.0000
30
0.0
11
0.0000
21
71.0000
31
0.0
0
LINE
8
Edge.Cuts
10
0.0000
20
71.0000
30
0.0
11
0.0000
21
0.0000
31
0.0
0
CIRCLE
8
Holes
10
108.7650
20
5.0000
30
0.0
40
1.3750
0
CIRCLE
8
Holes
10
157.7650
20
5.0000
30
0.0
40
1.3750
0
CIRCLE
8
Holes
10
108.7650
20
63.0000
30
0.0
40
1.3750
0
CIRCLE
8
Holes
10
157.7650
20
63.0000
30
0.0
40
1.3750
0
ENDSEC
0
EOF
